HIERARCHY
ROOT Hips
{
	OFFSET 0.000000 0.000000 0.000000
	CHANNELS 6 Xposition Yposition Zposition Zrotation Yrotation Xrotation 
	JOINT LHipJoint
	{
		OFFSET 0.000000 0.000000 0.000000
		CHANNELS 3 Zrotation Yrotation Xrotation
		JOINT LeftUpLeg
		{
			OFFSET 1.363060 -1.794630 0.839290
			CHANNELS 3 Zrotation Yrotation Xrotation
			JOINT LeftLeg
			{
				OFFSET 2.448110 -6.726130 0.000000
				CHANNELS 3 Zrotation Yrotation Xrotation
				JOINT LeftFoot
				{
					OFFSET 2.562200 -7.039590 0.000000
					CHANNELS 3 Zrotation Yrotation Xrotation
					JOINT LeftToeBase
					{
						OFFSET 0.157640 -0.433110 2.322550
						CHANNELS 3 Zrotation Yrotation Xrotation
						End Site
						{
							OFFSET 0.000000 0.000000 0.000000
						}
					}
				}
			}
		}
	}
	JOINT RHipJoint
	{
		OFFSET 0.000000 0.000000 0.000000
		CHANNELS 3 Zrotation Yrotation Xrotation
		JOINT RightUpLeg
		{
			OFFSET -1.305520 -1.794630 0.839290
			CHANNELS 3 Zrotation Yrotation Xrotation
			JOINT RightLeg
			{
				OFFSET -2.542530 -6.985550 0.000000
				CHANNELS 3 Zrotation Yrotation Xrotation
				JOINT RightFoot
				{
					OFFSET -2.568260 -7.056230 0.000000
					CHANNELS 3 Zrotation Yrotation Xrotation
					JOINT RightToeBase
					{
						OFFSET -0.164730 -0.452590 2.363150
						CHANNELS 3 Zrotation Yrotation Xrotation
						End Site
						{
							OFFSET 0.000000 0.000000 0.000000
						}
					}
				}
			}
		}
	}
}
MOTION
Frames: 22
Frame Time: 0.008333
0.520316 17.305847 -1.621502 128.206636 -75.431918 -118.200963 -6.187672 -4.452273 1.428815 -2.770319 -10.235234 -76.086737 -3.295892 -1.315174 -5.380087 -0.599011 -2.796219 20.202226 -0.708300 0.000000 -58.234900 8.928480 2.808567 -5.337134 2.033077 3.523667 -11.874353 1.101345 -0.901800 16.149999 -1.220553 -4.418542 -7.063176 -0.317100 -0.000001 -46.183000
0.519832 17.306328 -1.608355 129.437185 -75.086017 -119.297768 -6.072142 -4.441005 1.197492 -5.083236 -9.422740 -75.850567 -3.778543 -1.597487 -7.481021 -1.046581 -6.293183 19.305602 -2.242900 -0.000000 -60.364200 8.936231 2.823366 -5.242905 1.888469 3.591921 -12.237594 1.104487 -0.883686 16.285458 -1.153196 -4.062287 -7.034118 -0.299400 -0.000000 -46.337300
0.518552 17.306160 -1.594136 130.435067 -74.774278 -120.115569 -5.955775 -4.332531 1.033632 -7.238651 -8.874889 -76.695312 -4.231752 -1.695987 -7.333136 -1.310385 -9.488947 17.468639 -3.530600 0.000000 -62.300900 8.951498 2.842019 -5.157591 1.723205 3.611921 -12.674915 1.109881 -0.868194 16.466978 -1.084930 -3.690763 -7.034398 -0.278200 0.000000 -46.494300
0.516677 17.305287 -1.578853 131.259199 -74.520979 -120.714117 -5.863713 -4.171329 0.929194 -9.078755 -8.543924 -77.957793 -4.634593 -1.679354 -6.123860 -1.366195 -12.078616 15.397446 -4.491400 -0.000000 -63.944900 8.960545 2.858574 -5.076082 1.579746 3.626412 -13.166628 1.116948 -0.853820 16.672434 -1.025821 -3.361385 -7.055154 -0.258100 0.000000 -46.638300
0.514400 17.303796 -1.562790 131.962166 -74.328068 -121.161839 -5.811631 -4.030525 0.852646 -10.582183 -8.315956 -78.775515 -4.942450 -1.679572 -5.424241 -1.374251 -13.907503 14.028038 -5.121800 0.000000 -65.251800 8.951719 2.867341 -4.990952 1.483218 3.665397 -13.686632 1.124044 -0.839240 16.888031 -0.982351 -3.112298 -7.090313 -0.242100 0.000000 -46.746200
0.511975 17.301856 -1.546154 132.591861 -74.205589 -121.511379 -5.805833 -3.917583 0.801152 -11.742018 -8.159900 -79.144905 -5.144624 -1.698648 -5.231516 -1.407371 -14.929912 13.396405 -5.445900 -0.000001 -66.287100 8.921538 2.867612 -4.904708 1.450259 3.750621 -14.211638 1.130809 -0.823525 17.096426 -0.958333 -2.968506 -7.130910 -0.232200 0.000000 -46.814800
0.509676 17.299630 -1.529360 133.169819 -74.153119 -121.796972 -5.846989 -3.836018 0.763031 -12.618368 -8.037856 -79.065702 -5.245102 -1.737422 -5.536344 -1.501885 -15.189602 13.516612 -5.510600 0.000000 -67.134900 8.870423 2.858690 -4.818388 1.485883 3.889623 -14.717798 1.136655 -0.806261 17.284498 -0.954586 -2.937639 -7.168745 -0.229100 -0.000000 -46.850600
0.507640 17.297246 -1.512581 133.714450 -74.165356 -122.048522 -5.932021 -3.785983 0.730905 -13.248656 -7.927624 -78.562497 -5.250085 -1.793406 -6.290278 -1.645013 -14.723815 14.335300 -5.340001 -0.000000 -67.687500 8.801500 2.841520 -4.734383 1.585163 4.075668 -15.190872 1.141678 -0.787836 17.448026 -0.968907 -3.008798 -7.199137 -0.232401 -0.000000 -46.860400
0.505695 17.294908 -1.496014 134.238314 -74.231192 -122.284127 -6.055031 -3.764629 0.705152 -13.625906 -7.827873 -77.691615 -5.164877 -1.859730 -7.395013 -1.777924 -13.542311 15.733158 -4.930300 -0.000000 -67.803500 8.720148 2.818554 -4.656449 1.735839 4.293761 -15.622561 1.146213 -0.769107 17.586374 -0.997134 -3.159118 -7.219054 -0.241000 -0.000000 -46.855001
0.504025 17.292657 -1.479902 134.730390 -74.346735 -122.490443 -6.205566 -3.719650 0.708023 -13.722938 -7.811239 -77.049343 -5.029114 -1.829191 -7.738456 -1.745473 -11.705063 16.982758 -4.268900 0.000000 -67.316400 8.638131 2.795839 -4.594129 1.918678 4.519962 -16.016105 1.151615 -0.752058 17.703506 -1.033119 -3.354094 -7.229332 -0.253000 0.000000 -46.847600
0.502035 17.290761 -1.463774 135.234063 -74.514228 -122.695599 -6.374134 -3.607662 0.762320 -13.537887 -7.936038 -77.138895 -4.869607 -1.622772 -6.430637 -1.495760 -9.364052 17.476877 -3.367000 0.000000 -65.975599 8.557581 2.773776 -4.547746 2.136698 4.753819 -16.384431 1.159615 -0.735379 17.793414 -1.074047 -3.581028 -7.220401 -0.268800 -0.000000 -46.854400
0.499948 17.289235 -1.448248 135.701117 -74.683520 -122.882416 -6.543749 -3.505195 0.824410 -13.176356 -8.098056 -77.111936 -4.647717 -1.413675 -5.063793 -1.175164 -6.648230 18.016105 -2.261499 0.000000 -63.825700 8.482680 2.754048 -4.511782 2.346117 4.956714 -16.723910 1.168053 -0.720730 17.872770 -1.111489 -3.790627 -7.199936 -0.285000 0.000000 -46.886001
0.497412 17.288236 -1.433334 136.144339 -74.838775 -123.064587 -6.702918 -3.410101 0.886060 -12.730678 -8.278398 -76.977632 -4.386786 -1.212725 -3.654072 -0.806607 -3.793869 18.507323 -1.034600 -0.000000 -60.973700 8.415673 2.735594 -4.479772 2.535851 5.122569 -17.043970 1.176950 -0.707392 17.943962 -1.141828 -3.963991 -7.166616 -0.300699 -0.000000 -46.945500
0.494320 17.287849 -1.419061 136.579319 -74.966542 -123.262191 -6.843494 -3.319282 0.935761 -12.297350 -8.449410 -76.747461 -4.115187 -1.023322 -2.200460 -0.422183 -1.041457 18.871264 0.203000 0.000000 -57.744400 8.358937 2.717406 -4.445149 2.697960 5.252153 -17.348281 1.186131 -0.694625 18.006377 -1.162701 -4.088961 -7.120323 -0.315000 0.000000 -47.035499
0.490404 17.288201 -1.405464 137.015222 -75.056415 -123.481010 -6.962594 -3.234413 0.972999 -11.882304 -8.605737 -76.402650 -3.846195 -0.851403 -0.760677 -0.043913 1.491483 19.094428 1.377900 0.000000 -54.643301 8.313984 2.699879 -4.404535 2.824525 5.348689 -17.641202 1.195092 -0.681883 18.056525 -1.172972 -4.160069 -7.059523 -0.327800 0.000001 -47.159400
0.485614 17.289198 -1.392523 137.476542 -75.104551 -123.748674 -7.060949 -3.150635 0.988437 -11.552468 -8.718916 -75.965552 -3.603707 -0.688380 0.698723 0.296080 3.633144 19.143402 2.385200 0.000000 -52.036700 8.282020 2.681778 -4.352283 2.916812 5.423103 -17.922678 1.203769 -0.668555 18.093618 -1.172864 -4.178159 -6.987396 -0.338500 -0.000000 -47.305900
0.479701 17.290777 -1.380164 137.985638 -75.110753 -124.085183 -7.142575 -3.066343 0.980548 -11.310570 -8.777614 -75.442640 -3.396677 -0.528148 2.181890 0.579317 5.312091 19.027245 3.167999 0.000000 -50.176200 8.262706 2.662528 -4.285528 2.978410 5.487928 -18.190875 1.212020 -0.653955 18.113610 -1.163804 -4.150655 -6.905773 -0.347200 -0.000001 -47.467600
0.472529 17.292972 -1.368273 138.528689 -75.074275 -124.471729 -7.211897 -2.986068 0.959082 -11.078688 -8.806949 -74.803784 -3.214470 -0.374704 3.623674 0.808528 6.594393 18.822249 3.748600 0.000000 -49.311500 8.255726 2.643775 -4.206715 3.005377 5.546499 -18.445255 1.219282 -0.638358 18.114239 -1.146840 -4.082439 -6.816045 -0.354100 -0.000000 -47.643501
0.464019 17.295507 -1.356648 139.132970 -75.001587 -124.940960 -7.274307 -2.905938 0.917001 -10.889445 -8.785962 -74.079053 -3.064475 -0.215842 5.087736 0.970503 7.420492 18.534227 4.092100 0.000000 -49.293399 8.259008 2.623872 -4.113547 3.010006 5.615204 -18.676404 1.225789 -0.621146 18.093396 -1.124786 -3.987880 -6.722938 -0.359200 0.000000 -47.818400
0.453912 17.298299 -1.345087 139.799287 -74.897695 -125.492077 -7.334483 -2.827803 0.857974 -10.705880 -8.725977 -73.263143 -2.937728 -0.050981 6.563638 1.070792 7.848629 18.222791 4.231900 -0.000000 -50.013500 8.270396 2.602758 -4.008125 2.997950 5.700983 -18.876877 1.231485 -0.602318 18.049800 -1.099867 -3.878064 -6.629931 -0.363000 0.000000 -47.985799
0.442094 17.301151 -1.333381 140.533810 -74.769949 -126.134702 -7.396583 -2.752041 0.781484 -10.520569 -8.627276 -72.365579 -2.828733 0.122874 8.069624 1.114334 7.919725 17.926417 4.194700 0.000000 -51.224400 8.287139 2.579661 -3.891702 2.979066 5.812697 -19.038084 1.236547 -0.581797 17.983253 -1.074554 -3.765768 -6.540517 -0.366000 0.000001 -48.137501
0.428402 17.303972 -1.321353 141.315628 -74.624417 -126.846333 -7.463310 -2.681375 0.694761 -10.295058 -8.516976 -71.375540 -2.724500 0.300189 9.576216 1.117914 7.745085 17.704760 4.044699 0.000000 -52.727800 8.307048 2.555031 -3.768296 2.955873 5.948450 -19.156927 1.240966 -0.560020 17.895289 -1.050335 -3.658336 -6.457160 -0.368300 0.000001 -48.272800
